# xmcd
#
# Track frame offsets:
#        150
#        13353
#        30360
#        53333
#        70655
#        84665
#        103985
#        117905
#        133835
#        153770
#        166570
#        179543
#
# Disc length: 2636 seconds
#
# Revision: 7
# Processed by: cddbd v1.5.2PL0 Copyright (c) Steve Scherf et al.
# Submitted via: jack 3.1.1
#
DISCID=910a4a0c
DTITLE=JJ Cale - Closer To You
DYEAR=1994
DGENRE=Blues
TTITLE0=Long Way Home
TTITLE1=Sho-Biz Blues
TTITLE2=Slower Baby
TTITLE3=Devil's Nurse
TTITLE4=Like You Used To
TTITLE5=Borrowed Time
TTITLE6=Rose In The Garden
TTITLE7=Brown Dirt
TTITLE8=Hard Love
TTITLE9=Ain't Love Funny
TTITLE10=Closer To You
TTITLE11=Steve's Song
EXTD=YEAR: 1994
EXTT0=
EXTT1=
EXTT2=
EXTT3=
EXTT4=
EXTT5=
EXTT6=
EXTT7=
EXTT8=
EXTT9=
EXTT10=
EXTT11=
PLAYORDER=
